<svg width="366" height="133" viewBox="0 0 366 133" fill="none" xmlns="http://www.w3.org/2000/svg">
<path fill-rule="evenodd" clip-rule="evenodd" d="M312.405 0H313.505H314.105V3.2H317.605V3.8V4.89999H314.105V10.2C322.605 28.1 333.705 29.1 323.405 36.6C316.605 37.8 309.805 37.7 303.105 36.6C292.805 29.1 303.905 28 312.405 10.2V4.89999H308.905V3.8V3.2H312.405V0ZM269.805 67.7C253.005 55.4 270.905 53.6 284.805 25V12.6H277.605V10.4V9.2H284.805V2.7H287.005H288.205V9.2H295.405V10.4V12.6H288.205V25C302.105 53.7 319.905 55.4 303.205 67.7C292.005 69.1 280.905 69.2 269.805 67.7ZM359.105 103.1L361.305 103.7C366.205 104.8 366.905 100.1 362.605 99L323.505 87.8V39.6C322.405 39.8 321.305 39.9 320.205 40V133.1H323.505H354.805H359.105V103.1ZM334.005 104.8V121.4H348.605V109L334.005 104.8ZM303.105 39.7V42.5C303.605 43.1 304.005 43.7 304.505 44.3C305.805 45.8 307.405 47.7 308.905 49.6V47.5C311.805 47.7 314.705 47.7 317.705 47.6V66.4H309.605C308.205 67.9 306.605 69.2 305.005 70.3L304.405 70.8L303.605 70.9L303.105 71C292.105 72.3 281.005 72.4 270.005 71V133.4H298.705H303.005H320.205V40.3C314.505 40.8 308.805 40.6 303.105 39.7ZM317.705 73.2C314.805 73.3 311.905 73.3 308.905 73.1V91.9H317.705V73.2ZM279.605 97.7C282.805 98.1 286.005 98.1 289.105 97.7V111.1C285.905 111.5 282.705 111.5 279.605 111.1V97.7ZM279.605 77.4C282.805 77.8 286.005 77.8 289.105 77.4V90.8C285.905 91.2 282.705 91.2 279.605 90.8V77.4Z" fill="#1D2A3A" fill-opacity="0.1"/>
<path fill-rule="evenodd" clip-rule="evenodd" d="M60.4379 0H63.6379H65.3379V9.3H75.6379V11V14.1H65.3379V22.6L62.9379 25L60.5379 22.6V14.1H50.1379V11V9.3H60.4379V0ZM39.1379 81.2L1.53792 96.4C-1.16208 97.4 -0.0620806 100.6 2.93792 99.4L6.93792 97.8V133.2H33.0379H39.0379H51.5379V98.8L62.8379 87.4L74.2379 98.8V133.2H81.2379H86.7379H113.038H119.038L119.138 97.8L123.138 99.4C126.138 100.6 127.238 97.4 124.538 96.4L86.9379 81.2V65.4L62.9379 41.4L39.1379 65.2V81.2ZM33.0379 87.2L33.1379 133.2L33.0379 87.2ZM116.438 96.7L86.8379 84.7L115.838 96.5L116.438 96.7ZM62.9379 29.5L31.9379 60.5C31.4379 61 31.1379 61.6 31.1379 62.4C31.1379 63.9 32.3379 65.1 33.7379 65.1C34.4379 65.1 35.1379 64.8 35.6379 64.3L62.9379 37V29.5L93.9379 60.6C94.4379 61.1 94.7379 61.7 94.7379 62.5C94.7379 64 93.5379 65.2 92.0379 65.2C91.3379 65.2 90.6379 64.9 90.1379 64.4L62.9379 37V29.5ZM18.0379 103.9L23.0379 98.8L28.1379 103.9V119.2H18.0379V103.9ZM57.9379 60.9L62.9379 55.8L68.0379 60.9V76.2H57.9379V60.9ZM97.9379 103.9L102.938 98.8L108.038 103.9V119.2H97.9379V103.9Z" fill="#1D2A3A" fill-opacity="0.1"/>
<path d="M181.508 155.2V128.56C181.508 125.027 182.836 121.639 185.201 119.141C187.565 116.643 190.772 115.24 194.116 115.24C197.46 115.24 200.667 116.643 203.031 119.141C205.395 121.639 206.724 125.027 206.724 128.56V155.2H231.94V88.6C231.94 87.4508 231.658 86.3212 231.122 85.321C230.586 84.3209 229.815 83.4842 228.882 82.8924L200.42 64.8504V48.64H213.028V35.32H200.42V22H187.812V35.32H175.204V48.64H187.812V64.8504L159.349 82.8924C158.417 83.4842 157.645 84.3209 157.109 85.321C156.574 86.3212 156.292 87.4508 156.292 88.6V155.2H181.508ZM137.38 155.2H149.988V101.134L134.562 109.286C133.514 109.837 132.633 110.687 132.017 111.739C131.401 112.791 131.075 114.003 131.076 115.24V148.54C131.076 150.306 131.74 152 132.922 153.249C134.104 154.498 135.708 155.2 137.38 155.2ZM253.67 109.279L238.244 101.134V155.2H250.852C252.524 155.2 254.127 154.498 255.309 153.249C256.492 152 257.156 150.306 257.156 148.54V115.24C257.156 112.716 255.807 110.411 253.67 109.279Z" fill="#1D2A3A" fill-opacity="0.1"/>
</svg>
