<svg width="216" height="374" viewBox="0 0 216 374" fill="none" xmlns="http://www.w3.org/2000/svg">
<path d="M173.035 258.065H20.4695V354.999H173.035V258.065Z" fill="#455A64"/>
<path d="M169.631 255.29H16.6738C7.46511 255.29 0 262.755 0 271.964V272.64C0 281.849 7.46511 289.314 16.6738 289.314H169.631C178.84 289.314 186.305 281.849 186.305 272.64V271.964C186.305 262.755 178.84 255.29 169.631 255.29Z" fill="#455A64"/>
<path d="M173.241 288.853C173.241 288.981 137.598 289.089 93.6478 289.089C49.6977 289.089 14.0452 288.981 14.0452 288.853C14.0452 288.726 49.6781 288.618 93.6478 288.618C137.618 288.618 173.241 288.716 173.241 288.853Z" fill="#263238"/>
<path d="M40.8508 355.774C40.7135 355.774 40.6056 340.993 40.6056 322.77C40.6056 304.546 40.7135 289.765 40.8508 289.765C40.9881 289.765 41.0862 304.546 41.0862 322.77C41.0862 340.993 40.9783 355.774 40.8508 355.774Z" fill="#263238"/>
<path d="M137.284 275.583C137.033 274.762 136.833 273.927 136.686 273.082C136.215 271.064 135.558 269.094 134.724 267.197C133.882 265.313 132.875 263.508 131.713 261.802C131.184 261.123 130.696 260.412 130.252 259.674C130.911 260.252 131.494 260.911 131.988 261.636C134.512 264.99 136.233 268.879 137.019 273.003C137.217 273.848 137.306 274.715 137.284 275.583Z" fill="#263238"/>
<path d="M145.474 270.502C145.395 270.502 145.062 269.521 144.248 268.06C142.106 264.198 138.671 261.215 134.548 259.635C132.969 259.027 131.939 258.84 131.948 258.752C132.199 258.733 132.451 258.756 132.694 258.821C133.36 258.931 134.016 259.095 134.656 259.311C138.962 260.751 142.521 263.841 144.552 267.903C144.859 268.505 145.115 269.131 145.317 269.776C145.408 270.008 145.461 270.253 145.474 270.502Z" fill="#263238"/>
<g opacity="0.3">
<path opacity="0.3" d="M54.5331 255.996C60.6239 289.618 71.2069 324.309 86.1643 355.058H93.0299C95.835 351.135 94.9033 345.76 93.1476 341.326C91.392 336.893 88.9105 332.499 88.9399 327.703C88.9399 324.761 89.9208 321.887 90.3033 318.954C91.7058 307.626 83.928 297.268 82.1233 285.999C81.476 281.929 81.8487 277.221 84.9382 274.484C87.6453 272.081 91.6078 271.895 95.2269 271.983C104.682 272.209 114.284 273.396 123.514 271.316C132.743 269.237 141.815 262.92 143.728 253.662L54.5331 255.996Z" fill="black"/>
</g>
<path d="M144.091 150.471L173.976 142.398C173.976 142.398 167.581 123.43 162.599 109.767C158.195 97.6833 150.829 92.6517 146.965 89.9153C145.41 88.8068 143.609 88.0932 141.717 87.836C134.636 86.8552 115.294 84.3541 105.692 83.5498C93.8146 82.569 69.0197 89.0914 69.0197 89.0914C69.0197 89.0914 47.2751 101.155 39.9386 106.03C38.1472 107.211 36.7743 108.927 36.0154 110.934C34.6619 114.583 32.9357 120.85 30.876 128.952C29.5519 134.111 25.2069 151.167 25.2069 151.167L50.7079 150.382C55.8474 165.987 60.6141 180.003 60.6141 180.003L55.9945 208.701C55.9945 208.701 90.8525 222.639 99.7583 221.648C108.664 220.657 149.024 205.072 149.024 205.072C149.024 205.072 144.405 159.543 144.405 158.229C144.405 157.719 144.267 154.413 144.091 150.471Z" fill="#DF4903"/>
<g opacity="0.3">
<path opacity="0.3" d="M114.686 120.114C113.684 118.971 112.414 118.093 110.99 117.559C109.567 117.025 108.033 116.852 106.526 117.054C103.517 117.493 100.663 118.669 98.2184 120.477C90.4798 125.725 84.9971 133.64 80.142 141.614C71.6754 155.529 64.5615 170.223 58.8977 185.495L59.0938 189.418C65.4397 188.624 69.5689 183.269 72.325 177.502C75.0811 171.734 76.2482 165.349 78.6905 159.435C83.405 148.069 92.4241 139.028 103.78 134.287C105.669 134.53 107.589 134.321 109.381 133.677C111.173 133.032 112.787 131.97 114.088 130.58C116.56 127.725 117.03 123.096 114.686 120.114Z" fill="black"/>
</g>
<path d="M144.385 155.424C144.238 155.424 143.404 147.146 142.492 136.926C141.58 126.706 140.972 118.398 141.109 118.378C141.247 118.359 142.09 126.647 143.002 136.877C143.914 147.106 144.552 155.404 144.385 155.424Z" fill="#263238"/>
<path d="M43.9207 118.378C44.0836 118.795 44.2084 119.225 44.2934 119.663C44.519 120.644 44.7936 121.792 45.1271 123.214C45.8137 126.156 46.7356 130.354 47.7066 134.984C48.6776 139.613 49.5506 143.732 50.1391 146.753C50.4137 148.185 50.6393 149.392 50.8256 150.333C50.9316 150.767 50.9908 151.211 51.0022 151.657C50.8373 151.242 50.7125 150.812 50.6295 150.372C50.4039 149.441 50.1293 148.254 49.786 146.832C49.0994 143.83 48.1872 139.682 47.2064 135.062C46.2256 130.442 45.3723 126.313 44.774 123.292C44.5092 121.86 44.2738 120.664 44.0973 119.722C43.9902 119.282 43.931 118.831 43.9207 118.378Z" fill="#263238"/>
<path d="M139.824 88.1891C139.972 88.1891 139.108 91.5435 138.52 95.7119C137.931 99.8803 137.804 103.313 137.647 103.313C137.514 102.569 137.481 101.81 137.549 101.057C137.6 99.2453 137.754 97.4377 138.01 95.6433C138.269 93.8484 138.633 92.0701 139.099 90.3174C139.242 89.5782 139.487 88.8621 139.824 88.1891Z" fill="#263238"/>
<path d="M144.091 150.471C143.826 150.549 151.692 177.58 151.692 177.58L128.574 175.697L117.54 189.213L156.94 203.729C156.94 203.729 181.362 192.842 181.362 191.851C181.362 190.86 172.534 142.81 172.534 142.81L144.091 150.471Z" fill="#886962"/>
<path d="M127.084 153.599C127.309 153.592 127.531 153.539 127.735 153.443C127.939 153.347 128.121 153.21 128.27 153.04C128.451 152.841 128.588 152.607 128.674 152.352C128.761 152.097 128.793 151.827 128.771 151.559C128.72 151.198 128.566 150.859 128.328 150.582C128.09 150.306 127.777 150.103 127.427 150C126.996 149.842 126.53 149.803 126.078 149.886C125.626 149.969 125.205 150.17 124.857 150.471C124.448 150.806 124.114 151.224 123.876 151.697C123.752 151.948 123.654 152.21 123.582 152.481C123.514 152.756 123.425 153.06 123.582 153.236C123.667 153.326 123.776 153.389 123.896 153.419C124.016 153.448 124.142 153.443 124.259 153.403C124.534 153.328 124.776 153.162 124.946 152.932C125.126 152.682 125.245 152.392 125.293 152.087C125.341 151.782 125.316 151.47 125.22 151.177C125.071 150.871 124.863 150.599 124.607 150.375C124.351 150.151 124.053 149.981 123.731 149.874C123.408 149.767 123.067 149.726 122.729 149.753C122.39 149.779 122.06 149.873 121.758 150.029C121.067 150.342 120.464 150.821 120.002 151.422C119.767 151.701 119.614 152.041 119.561 152.403C119.537 152.561 119.573 152.722 119.662 152.854C119.751 152.987 119.886 153.081 120.041 153.119C120.22 153.144 120.401 153.127 120.572 153.069C120.742 153.011 120.896 152.914 121.022 152.785C121.283 152.521 121.443 152.174 121.473 151.804C121.494 151.399 121.41 150.994 121.23 150.63C121.05 150.266 120.779 149.955 120.444 149.725C120.079 149.501 119.671 149.358 119.246 149.304C118.822 149.25 118.391 149.286 117.982 149.411C117.556 149.508 117.158 149.7 116.818 149.974C116.478 150.247 116.205 150.595 116.02 150.99C115.924 151.175 115.869 151.379 115.859 151.587C115.849 151.795 115.884 152.003 115.961 152.197C116.049 152.378 116.19 152.528 116.365 152.626C116.541 152.724 116.742 152.766 116.942 152.746C117.157 152.74 117.367 152.681 117.555 152.576C117.743 152.471 117.902 152.322 118.02 152.142C118.137 151.961 118.209 151.755 118.23 151.541C118.251 151.327 118.219 151.111 118.139 150.912C117.978 150.477 117.679 150.108 117.287 149.861C116.895 149.615 116.432 149.505 115.971 149.549C114.976 149.635 114.044 150.073 113.343 150.784C112.956 151.122 112.61 151.504 112.313 151.922C112.169 152.098 112.068 152.304 112.019 152.526C111.97 152.747 111.973 152.977 112.028 153.197C112.079 153.285 112.146 153.361 112.227 153.422C112.307 153.482 112.399 153.526 112.497 153.551C112.595 153.576 112.697 153.581 112.796 153.565C112.896 153.55 112.992 153.515 113.078 153.462C113.277 153.351 113.44 153.184 113.546 152.982C113.652 152.78 113.697 152.552 113.676 152.324C113.643 151.812 113.485 151.316 113.217 150.878C112.948 150.441 112.577 150.075 112.136 149.813C111.46 149.398 110.659 149.237 109.875 149.359C109.091 149.481 108.377 149.879 107.86 150.48C107.694 150.668 107.569 150.887 107.491 151.125C107.414 151.363 107.386 151.614 107.409 151.863C107.507 152.844 109.135 153.05 109.664 152.226C109.921 151.783 109.994 151.256 109.868 150.759C109.741 150.262 109.425 149.835 108.988 149.568C108.521 149.307 108.001 149.156 107.467 149.127C106.933 149.099 106.4 149.192 105.908 149.401C105.393 149.598 104.9 149.848 104.437 150.147C103.98 150.402 103.585 150.753 103.279 151.177C103.143 151.367 103.062 151.591 103.044 151.825C103.027 152.059 103.074 152.292 103.181 152.501C103.221 152.596 103.282 152.682 103.358 152.753C103.434 152.823 103.524 152.877 103.623 152.909C103.722 152.942 103.826 152.953 103.929 152.941C104.032 152.93 104.132 152.897 104.221 152.844C104.414 152.725 104.567 152.552 104.661 152.346C104.755 152.14 104.786 151.91 104.751 151.687C104.684 151.194 104.476 150.73 104.152 150.353C103.838 149.971 103.435 149.673 102.978 149.485C102.521 149.297 102.025 149.224 101.534 149.274C101.051 149.32 100.587 149.485 100.183 149.753C99.779 150.022 99.4479 150.386 99.2188 150.814C99.1134 151.008 99.0517 151.222 99.0382 151.443C99.0246 151.663 99.0595 151.884 99.1404 152.089C99.2289 152.265 99.3727 152.408 99.5498 152.494C99.7269 152.581 99.9276 152.608 100.121 152.569C100.331 152.545 100.531 152.467 100.703 152.343C100.875 152.22 101.012 152.055 101.102 151.863C101.189 151.664 101.234 151.448 101.234 151.231C101.234 151.013 101.189 150.798 101.102 150.598C100.911 150.191 100.621 149.839 100.257 149.575C99.8934 149.311 99.4687 149.143 99.0227 149.088C98.1349 148.889 97.2117 148.912 96.3353 149.156C95.9255 149.249 95.5485 149.452 95.2445 149.742C94.9406 150.032 94.721 150.399 94.609 150.804C94.5199 151.194 94.569 151.603 94.7479 151.961C94.9268 152.318 95.2244 152.603 95.5898 152.766C95.9563 152.835 96.3353 152.758 96.6454 152.551C96.9554 152.343 97.1716 152.022 97.2474 151.657C97.3225 151.286 97.3063 150.902 97.2004 150.538C97.0945 150.174 96.902 149.841 96.6393 149.568C96.141 149.009 95.484 148.616 94.7561 148.44C94.0717 148.273 93.3569 148.276 92.6735 148.446C91.99 148.617 91.3583 148.952 90.8329 149.421C90.3487 149.848 90.0065 150.413 89.8521 151.039C89.7815 151.32 89.791 151.615 89.8794 151.891C89.9678 152.166 90.1316 152.412 90.3523 152.599C90.5531 152.769 90.81 152.858 91.0729 152.849C91.3357 152.84 91.5858 152.733 91.7745 152.55C91.9614 152.382 92.1033 152.171 92.1872 151.934C92.2712 151.698 92.2945 151.444 92.2551 151.196C92.1798 150.724 91.9904 150.277 91.7032 149.894C91.4161 149.511 91.0399 149.204 90.6073 148.999C89.9549 148.643 89.1978 148.529 88.4692 148.676C87.9321 148.789 87.4306 149.032 87.0077 149.382C86.6646 149.682 86.373 150.037 86.1446 150.431C86.1788 150.319 86.2248 150.21 86.2819 150.108C86.4548 149.805 86.6769 149.533 86.9391 149.303C87.3622 148.921 87.8749 148.651 88.4299 148.519C89.1994 148.346 90.0051 148.45 90.7054 148.813C91.153 149.029 91.5434 149.348 91.845 149.743C92.1466 150.139 92.3509 150.6 92.4414 151.088C92.4874 151.38 92.4613 151.677 92.3656 151.956C92.2698 152.235 92.1073 152.486 91.8922 152.687C91.6531 152.916 91.3385 153.049 91.0078 153.062C90.677 153.075 90.3531 152.966 90.0973 152.756C89.8311 152.535 89.6314 152.245 89.5205 151.918C89.4097 151.591 89.392 151.239 89.4696 150.902C89.607 150.215 89.9489 149.586 90.4504 149.097C91.0131 148.582 91.694 148.213 92.4329 148.024C93.1718 147.834 93.9461 147.829 94.6875 148.009C95.4978 148.194 96.231 148.626 96.7864 149.245C97.0938 149.566 97.3186 149.956 97.4416 150.384C97.5646 150.811 97.5821 151.261 97.4926 151.697C97.3648 152.153 97.093 152.555 96.7178 152.844C96.5193 152.995 96.2883 153.098 96.043 153.144C95.7978 153.19 95.5452 153.178 95.3054 153.109C95.0691 153.03 94.8523 152.902 94.6696 152.733C94.4869 152.564 94.3425 152.358 94.2461 152.128C94.0306 151.68 93.9587 151.177 94.0402 150.686C94.1703 150.207 94.4277 149.771 94.7851 149.426C95.1425 149.08 95.5866 148.838 96.0704 148.725C97.0272 148.445 98.0383 148.408 99.0129 148.617C99.5349 148.692 100.03 148.895 100.455 149.209C100.879 149.522 101.219 149.935 101.445 150.412C101.555 150.671 101.611 150.949 101.611 151.231C101.611 151.512 101.555 151.79 101.445 152.05C101.32 152.313 101.13 152.541 100.894 152.713C100.657 152.884 100.381 152.993 100.092 153.03C99.7889 153.092 99.4743 153.052 99.1961 152.917C98.918 152.783 98.6917 152.561 98.5519 152.285C98.4374 152.011 98.385 151.715 98.3985 151.418C98.4121 151.121 98.4913 150.831 98.6303 150.569C98.9006 150.061 99.2923 149.627 99.7705 149.307C100.249 148.987 100.799 148.79 101.371 148.734C101.944 148.677 102.522 148.763 103.053 148.984C103.585 149.205 104.053 149.554 104.417 150C104.814 150.45 105.064 151.012 105.133 151.608C105.179 151.931 105.129 152.26 104.989 152.555C104.85 152.849 104.627 153.096 104.348 153.266C104.203 153.355 104.041 153.413 103.872 153.435C103.703 153.457 103.531 153.443 103.368 153.393C103.039 153.277 102.768 153.038 102.612 152.726C102.46 152.435 102.389 152.108 102.408 151.78C102.427 151.451 102.535 151.135 102.72 150.863C103.067 150.37 103.519 149.961 104.044 149.666C104.537 149.345 105.063 149.079 105.614 148.872C106.182 148.632 106.798 148.527 107.414 148.565C108.03 148.602 108.629 148.781 109.164 149.088C109.446 149.256 109.691 149.478 109.886 149.742C110.08 150.007 110.22 150.307 110.297 150.626C110.373 150.945 110.386 151.276 110.333 151.599C110.28 151.923 110.163 152.233 109.988 152.511C109.783 152.784 109.508 152.995 109.192 153.123C108.875 153.251 108.53 153.29 108.193 153.236C107.832 153.202 107.49 153.058 107.212 152.824C106.952 152.588 106.779 152.27 106.722 151.922C106.685 151.599 106.715 151.272 106.812 150.961C106.908 150.65 107.068 150.363 107.281 150.117C107.88 149.412 108.712 148.944 109.627 148.8C110.541 148.656 111.477 148.845 112.264 149.333C112.778 149.641 113.209 150.07 113.52 150.583C113.832 151.096 114.013 151.677 114.049 152.275C114.066 152.6 113.991 152.923 113.833 153.207C113.675 153.492 113.441 153.726 113.156 153.884C112.852 154.033 112.506 154.074 112.175 154.001C112.004 153.964 111.844 153.886 111.708 153.776C111.571 153.665 111.463 153.524 111.391 153.364C111.299 153.064 111.28 152.746 111.336 152.437C111.393 152.128 111.522 151.837 111.714 151.589C112.035 151.132 112.41 150.717 112.832 150.353C113.619 149.564 114.664 149.083 115.775 148.999C116.344 148.97 116.91 149.106 117.403 149.392C117.891 149.699 118.255 150.167 118.433 150.716C118.526 150.989 118.557 151.279 118.525 151.565C118.492 151.852 118.398 152.128 118.247 152.373C118.083 152.61 117.866 152.805 117.615 152.945C117.363 153.084 117.082 153.164 116.795 153.178C116.502 153.197 116.209 153.129 115.954 152.982C115.7 152.836 115.494 152.617 115.363 152.354C115.255 152.099 115.205 151.824 115.215 151.548C115.225 151.272 115.296 151.001 115.422 150.755C115.638 150.294 115.958 149.889 116.356 149.571C116.754 149.253 117.219 149.03 117.717 148.921C118.188 148.782 118.683 148.744 119.17 148.81C119.657 148.876 120.124 149.044 120.542 149.303C120.94 149.577 121.261 149.95 121.472 150.385C121.684 150.82 121.779 151.302 121.748 151.785C121.746 152.031 121.691 152.274 121.589 152.499C121.486 152.723 121.337 152.923 121.152 153.086C120.967 153.248 120.75 153.37 120.515 153.444C120.279 153.517 120.031 153.54 119.786 153.511C119.534 153.45 119.312 153.299 119.164 153.086C119.016 152.872 118.951 152.612 118.982 152.354C119.047 151.909 119.234 151.492 119.522 151.147C120.033 150.51 120.689 150.002 121.434 149.666C122.138 149.33 122.946 149.286 123.682 149.546C124.418 149.805 125.02 150.346 125.357 151.049C125.473 151.394 125.502 151.763 125.442 152.122C125.382 152.481 125.235 152.82 125.014 153.109C124.798 153.396 124.49 153.6 124.141 153.688C123.965 153.74 123.777 153.738 123.602 153.682C123.427 153.626 123.273 153.519 123.16 153.374C123.096 153.218 123.062 153.052 123.062 152.883C123.062 152.715 123.096 152.548 123.16 152.393C123.243 152.108 123.355 151.832 123.494 151.569C123.749 151.063 124.106 150.615 124.543 150.255C124.927 149.939 125.388 149.729 125.879 149.648C126.37 149.568 126.873 149.618 127.339 149.794C127.72 149.916 128.058 150.146 128.312 150.455C128.566 150.765 128.726 151.142 128.771 151.54C128.786 151.827 128.743 152.114 128.644 152.384C128.544 152.654 128.39 152.901 128.192 153.109C128.058 153.271 127.888 153.4 127.696 153.485C127.503 153.57 127.294 153.609 127.084 153.599Z" fill="#263238"/>
<path d="M85.9582 150.775L72.4623 201.777L115.373 203.13L128.869 152.756L85.9582 150.775Z" fill="#455A64"/>
<path d="M85.9583 150.775L84.2418 150.931L70.6282 198.04L72.6977 200.884L85.9583 150.775Z" fill="#E0E0E0"/>
<path d="M114.363 163.77H128.3C128.956 163.761 129.601 163.947 130.151 164.305C130.701 164.663 131.132 165.177 131.389 165.781C131.946 167.047 132.221 168.419 132.194 169.802C132.795 170.621 133.137 171.602 133.174 172.617C133.315 175.162 133.315 177.713 133.174 180.258C133.047 180.66 131.566 181.062 131.566 181.062C131.566 181.062 132.547 183.21 131.703 184.809C131.308 185.707 130.591 186.424 129.693 186.819C129.693 186.819 127.819 191.115 125.936 191.645C124.053 192.175 122.327 191.645 121.385 191.645C120.444 191.645 105.3 183.877 105.3 183.877V182.131C105.3 182.131 99.9446 182.671 99.8073 179.718C99.67 176.766 103.289 176.952 103.289 176.952H111.469C111.469 176.952 102.485 177.306 101.661 175.972C100.837 174.638 99.7779 171.411 102.524 170.881C105.27 170.352 117.668 170.342 117.668 170.342L124.435 171.46H125.505L124.671 168.517C124.671 168.517 117.57 168.517 116.511 168.37C115.451 168.223 113.45 167.968 113.45 166.095C113.45 164.221 114.363 163.77 114.363 163.77Z" fill="#886962"/>
<path d="M122.199 177.776C121.342 177.929 120.47 177.988 119.6 177.953C117.992 177.953 115.765 177.953 113.313 177.776C110.861 177.6 108.644 177.364 107.056 177.139C106.186 177.063 105.328 176.892 104.496 176.629C105.364 176.59 106.234 176.633 107.095 176.756C108.693 176.894 110.9 177.08 113.343 177.237C115.785 177.394 118.001 177.492 119.6 177.57C120.471 177.552 121.342 177.621 122.199 177.776Z" fill="#654742"/>
<path d="M120.934 185.289C120.16 185.37 119.378 185.347 118.609 185.221C117.187 185.093 115.226 184.868 113.068 184.514C110.91 184.161 108.978 183.769 107.585 183.426C106.82 183.294 106.073 183.074 105.359 182.769C106.135 182.775 106.909 182.87 107.664 183.053L113.156 183.985L118.658 184.848C119.43 184.916 120.193 185.064 120.934 185.289Z" fill="#654742"/>
<path d="M132.606 174.755C132.606 174.755 132.802 174.814 133.096 175.059C133.503 175.418 133.813 175.874 133.998 176.384C134.3 177.183 134.283 178.068 133.949 178.855C133.73 179.355 133.4 179.797 132.984 180.149C132.567 180.501 132.075 180.753 131.546 180.885L131.703 180.503C132.018 181.039 132.215 181.635 132.283 182.252C132.35 182.869 132.287 183.494 132.096 184.085C131.905 184.676 131.591 185.22 131.175 185.681C130.76 186.142 130.251 186.51 129.683 186.761L129.84 186.584C129.364 188.399 128.306 190.008 126.829 191.164C126.408 191.489 125.954 191.768 125.475 191.998C125.31 192.096 125.126 192.159 124.936 192.184C124.936 192.116 125.632 191.792 126.623 190.919C127.96 189.744 128.91 188.192 129.349 186.466V186.339L129.467 186.29C129.962 186.063 130.405 185.736 130.767 185.329C131.129 184.921 131.402 184.443 131.569 183.925C131.736 183.406 131.793 182.859 131.737 182.317C131.681 181.775 131.512 181.251 131.242 180.778L131.046 180.474L131.399 180.385C131.858 180.279 132.287 180.07 132.654 179.774C133.021 179.479 133.316 179.104 133.518 178.679C133.842 177.991 133.898 177.208 133.675 176.482C133.446 175.836 133.082 175.248 132.606 174.755Z" fill="#654742"/>
<path d="M99.7583 108.453L108.36 91.1314L105.692 83.54C105.692 83.54 118.6 76.841 114.186 63.1685C112.058 56.5677 106.565 43.3267 101.435 31.4001C98.7848 25.2217 93.9055 20.2676 87.7682 17.5234C81.6309 14.7791 74.6854 14.4458 68.3135 16.5898L66.9992 17.0312C53.1109 22.6218 50.0998 37.5399 56.073 51.2713L73.5412 102.273L99.7583 108.453Z" fill="#886962"/>
<path d="M105.702 83.5007C99.4538 85.7308 92.6836 86.0517 86.2525 84.4227C86.2525 84.4227 93.7459 92.8086 106.928 87.012L105.702 83.5007Z" fill="#654742"/>
<path d="M101.916 42.1497C102.091 42.6547 102.061 43.208 101.834 43.6916C101.607 44.1753 101.2 44.5511 100.7 44.7391C100.459 44.8428 100.199 44.8972 99.937 44.8989C99.6747 44.9006 99.4146 44.8496 99.1722 44.749C98.9299 44.6484 98.7102 44.5002 98.5261 44.3132C98.3421 44.1262 98.1974 43.9041 98.1007 43.6602C97.9259 43.1552 97.9553 42.602 98.1825 42.1183C98.4096 41.6346 98.8167 41.2588 99.3169 41.0709C99.5579 40.9671 99.8173 40.9128 100.08 40.9111C100.342 40.9093 100.602 40.9603 100.845 41.0609C101.087 41.1615 101.307 41.3097 101.491 41.4967C101.675 41.6838 101.819 41.9058 101.916 42.1497Z" fill="#263238"/>
<path d="M100.729 38.2265C100.572 38.56 98.7677 37.9715 96.6491 38.6777C94.5306 39.3839 93.3732 40.9532 93.0594 40.7668C92.9122 40.6982 93.0005 40.1489 93.5105 39.4427C94.2042 38.5195 95.1671 37.8341 96.2666 37.4811C97.36 37.1266 98.5374 37.1266 99.6308 37.4811C100.415 37.6871 100.808 38.0794 100.729 38.2265Z" fill="#263238"/>
<path d="M82.6628 48.5349C82.8379 49.0412 82.8089 49.5958 82.5818 50.0811C82.3547 50.5664 81.9475 50.944 81.4466 51.134C81.2056 51.2378 80.9462 51.2921 80.6838 51.2938C80.4214 51.2955 80.1613 51.2446 79.9189 51.144C79.6766 51.0434 79.4569 50.8952 79.2728 50.7081C79.0888 50.5211 78.9441 50.2991 78.8474 50.0551C78.6723 49.5488 78.7013 48.9942 78.9284 48.5089C79.1555 48.0236 79.5627 47.6459 80.0636 47.456C80.3046 47.3522 80.564 47.2979 80.8264 47.2962C81.0888 47.2945 81.3489 47.3454 81.5912 47.446C81.8336 47.5466 82.0533 47.6948 82.2374 47.8818C82.4214 48.0689 82.5661 48.2909 82.6628 48.5349Z" fill="#263238"/>
<path d="M80.4069 44.4253C80.2794 44.7784 78.3864 44.4253 76.3855 45.3178C74.3847 46.2103 73.3843 47.9268 73.0508 47.7894C72.8939 47.7306 72.9233 47.1814 73.3548 46.4163C73.9398 45.412 74.8248 44.6163 75.8853 44.1408C76.9254 43.654 78.0941 43.513 79.2201 43.7387C80.0538 43.925 80.4657 44.2683 80.4069 44.4253Z" fill="#263238"/>
<path d="M93.1476 59.2845C94.1301 58.5644 95.2015 57.9743 96.3352 57.5289C96.8551 57.2935 97.316 57.0189 97.316 56.6265C97.316 56.2342 96.8943 55.6948 96.4333 55.1553L93.4909 51.6244C89.3519 46.5634 86.1544 42.3361 86.3604 42.1694C86.5664 42.0026 90.0875 45.9749 94.2069 50.9967L97.0905 54.5766C97.6432 55.111 97.9904 55.8227 98.0713 56.5873C98.0553 56.8018 97.9915 57.0101 97.8846 57.1968C97.7777 57.3834 97.6303 57.5438 97.4534 57.6662C97.1845 57.8424 96.8945 57.9841 96.5903 58.0879C95.4984 58.6319 94.3415 59.034 93.1476 59.2845Z" fill="#263238"/>
<path d="M77.5625 37.1869C77.5625 37.8244 75.3655 38.256 73.0116 39.3741C70.6576 40.4922 68.8922 41.8359 68.3919 41.4338C68.1664 41.2376 68.3331 40.5903 68.951 39.7664C69.7951 38.7346 70.8619 37.9074 72.0713 37.3468C73.2808 36.7863 74.6015 36.5069 75.9344 36.5297C76.9544 36.5395 77.5625 36.8338 77.5625 37.1869Z" fill="#263238"/>
<path d="M98.238 32.5967C98.0321 33.2048 96.4235 33.195 94.6777 33.7541C92.9319 34.3131 91.5881 35.1468 91.0781 34.7349C90.8525 34.5387 90.9212 33.9895 91.4116 33.3225C92.0934 32.4949 93.0048 31.8876 94.031 31.5769C95.0573 31.2663 96.1525 31.2662 97.1788 31.5767C97.9536 31.8905 98.3263 32.2829 98.238 32.5967Z" fill="#263238"/>
<path d="M60.5749 60.9323C60.3101 60.9323 50.2862 61.3049 53.7092 70.5148C57.1322 79.7246 65.6751 74.438 65.5966 74.1143C65.5182 73.7907 60.5749 60.9323 60.5749 60.9323Z" fill="#886962"/>
<path d="M61.487 71.6722C61.438 71.6722 61.3693 71.8488 61.1438 72.0743C60.8234 72.378 60.3984 72.5466 59.957 72.5451C58.8487 72.5451 57.4559 71.3093 56.7988 69.6615C56.4763 68.8828 56.3355 68.041 56.3868 67.1997C56.366 66.8797 56.424 66.5595 56.5557 66.2671C56.6873 65.9747 56.8887 65.7191 57.142 65.5225C57.3096 65.4112 57.5104 65.3611 57.7105 65.3808C57.9107 65.4005 58.0979 65.4886 58.2406 65.6304C58.4563 65.8364 58.4661 66.0423 58.525 66.0423C58.5838 66.0423 58.6623 65.8168 58.4465 65.4637C58.3088 65.2556 58.1049 65.1001 57.8678 65.0223C57.5418 64.9235 57.1902 64.9552 56.887 65.1106C56.5355 65.3271 56.2454 65.6301 56.0445 65.9907C55.8436 66.3513 55.7386 66.7575 55.7395 67.1703C55.6451 68.1113 55.7832 69.061 56.1416 69.9362C56.887 71.7703 58.4858 73.163 59.957 73.0453C60.2314 73.026 60.4981 72.9455 60.7374 72.8097C60.9767 72.674 61.1825 72.4864 61.3399 72.2607C61.5557 71.9076 61.5263 71.682 61.487 71.6722Z" fill="#654742"/>
<path d="M87.4688 62.8056C87.8022 62.6683 88.5771 64.9438 91.0585 65.8952C93.54 66.8466 95.8841 65.7971 95.9626 66.1012C96.041 66.2385 95.5702 66.7289 94.56 67.082C93.2369 67.5485 91.7913 67.5311 90.4798 67.0329C89.2194 66.5578 88.1926 65.6119 87.6159 64.3946C87.2432 63.4922 87.3118 62.8449 87.4688 62.8056Z" fill="#263238"/>
<path d="M104.79 11.2346C104.367 10.3888 103.741 9.66159 102.967 9.11873C102.193 8.57588 101.296 8.2345 100.357 8.12545C100.176 7.611 99.9456 7.11506 99.67 6.64443C98.8208 5.21346 97.5063 4.11721 95.9461 3.53882C94.3859 2.96044 92.6745 2.93495 91.0977 3.4666C90.4403 2.35923 89.4934 1.45208 88.3589 0.842775C87.2244 0.23347 85.9452 -0.0549243 84.6589 0.00863051C83.3727 0.0721853 82.1281 0.48528 81.0592 1.20346C79.9903 1.92164 79.1374 2.91773 78.5924 4.08451C77.0871 3.48004 75.4396 3.32138 73.8466 3.62746C72.2536 3.93354 70.7823 4.69144 69.6082 5.81074C69.3014 6.06953 69.0737 6.40942 68.951 6.79155C68.9234 6.92302 68.9231 7.05876 68.9501 7.19036C68.9771 7.32196 69.0308 7.44661 69.1079 7.55658C68.4419 7.01678 67.6554 6.64573 66.8153 6.47497C65.9752 6.30421 65.1063 6.33879 64.2824 6.57577C63.725 6.74732 63.2009 7.01267 62.7327 7.36042C61.3007 7.98488 60.168 9.1422 59.5745 10.5873C57.4883 10.619 55.4861 11.414 53.9464 12.8218C52.4066 14.2297 51.4359 16.1528 51.218 18.2278C49.7301 18.8489 48.4609 19.8988 47.5718 21.2437C46.6828 22.5887 46.2141 24.1678 46.2256 25.78C45.2608 26.1811 44.4202 26.8317 43.7901 27.6652C43.16 28.4986 42.7632 29.4848 42.6403 30.5223C42.5175 31.5599 42.6731 32.6115 43.0912 33.569C43.5093 34.5265 44.1748 35.3555 45.0192 35.9707C45.0192 35.9707 38.9971 39.6389 42.6457 44.8862C44.5092 47.5737 48.3344 45.7101 48.3344 45.7101L59.6529 62.8449C59.6039 62.9626 61.6146 64.7378 62.5954 63.8845C63.5762 63.0312 63.8018 61.6679 64.1058 60.4125C64.5712 59.0141 64.8129 57.551 64.8218 56.0773C64.8078 55.3404 64.5556 54.6279 64.103 54.0463C63.6504 53.4647 63.0217 53.0451 62.3109 52.8504C62.9866 52.2625 63.4955 51.5069 63.7865 50.6598C64.0775 49.8127 64.1403 48.9039 63.9685 48.0248C63.6128 46.2707 62.9487 44.5937 62.0069 43.0717L58.2111 36.1374C59.8828 35.5033 61.3493 34.4244 62.4522 33.0173C63.5551 31.6102 64.2524 29.9283 64.4687 28.1536C65.2303 28.3733 66.0298 28.4291 66.8145 28.3174C67.5992 28.2057 68.3513 27.929 69.0213 27.5055C69.6913 27.082 70.2639 26.5213 70.7015 25.8605C71.1391 25.1996 71.4317 24.4535 71.56 23.6713C72.7183 25.1195 74.3826 26.0747 76.2174 26.3441C78.0522 26.6135 79.9209 26.1771 81.4465 25.1229C81.7212 27.1728 85.7817 27.8005 87.8512 27.673C89.9208 27.5455 91.8431 25.4073 91.8431 25.4073C93.2322 25.6905 94.6609 25.7204 96.0606 25.4956L96.2666 25.4466C98.9834 24.8188 100.749 21.5233 101.249 18.8261C101.96 18.6735 102.629 18.369 103.211 17.9336C104.176 17.1478 104.855 16.0647 105.141 14.8529C105.426 13.6412 105.303 12.3689 104.79 11.2346Z" fill="#263238"/>
<path d="M28.2964 151.059C28.2964 151.059 22.3233 172.637 21.009 177.953C19.6947 183.269 19.7045 195.5 22.6665 199.129C25.6286 202.758 35.5348 205.062 35.5348 205.062C35.5348 205.062 54.9254 195.598 61.5165 184.053C68.1075 172.509 86.1642 141.094 86.1642 141.094L80.4461 125.401L50.3941 154.1L50.6981 150.372L28.2964 151.059Z" fill="#886962"/>
<path d="M91.0585 75.9485C91.3058 75.8234 91.5753 75.7483 91.8516 75.7274C92.1279 75.7066 92.4056 75.7404 92.6689 75.8269C92.9321 75.9134 93.1757 76.051 93.3858 76.2317C93.5958 76.4125 93.7682 76.6329 93.893 76.8803L111.204 111.317L106.771 113.278L90.0973 78.7242C89.8651 78.2274 89.8357 77.6596 90.0151 77.1415C90.1946 76.6233 90.5688 76.1954 91.0585 75.9485Z" fill="#455A64"/>
<path d="M79.4849 126.441L95.6487 109.767H111.145L121.071 122.87C121.071 122.87 116.373 123.743 114.686 121.223L112.499 118.104C112.499 118.104 114.686 122.9 113.48 125.264C113.48 125.264 111.155 130.737 110.783 131.325C110.076 132.424 109.537 133.13 107.516 132.796C105.496 132.463 102.357 130.835 102.701 129.638C102.807 129.298 103.003 128.993 103.269 128.757C103.536 128.52 103.861 128.36 104.211 128.294L99.4934 127.618C99.4934 127.618 94.7463 136.219 91.8824 138.24C90.1152 139.475 88.1795 140.449 86.1348 141.133L79.4849 126.441Z" fill="#886962"/>
<path d="M51.0022 153.599C51.0022 153.678 49.6977 154.305 47.638 155.502C44.9655 157.071 42.4525 158.898 40.1348 160.955C37.8226 163.03 35.7231 165.33 33.8674 167.821C32.4354 169.724 31.6606 170.989 31.592 170.94C31.71 170.613 31.8646 170.3 32.0529 170.008C32.3766 169.42 32.8866 168.596 33.5732 167.605C37.1684 162.441 41.921 158.189 47.4517 155.188C48.5109 154.619 49.4133 154.207 50.0116 153.952C50.327 153.797 50.6594 153.678 51.0022 153.599Z" fill="#654742"/>
<path d="M99.209 114.573C99.9472 114.359 100.707 114.231 101.475 114.19C102.887 114.014 104.839 113.818 106.987 113.621C107.531 113.553 108.081 113.553 108.625 113.621C109.147 113.697 109.645 113.896 110.076 114.2C110.78 114.705 111.343 115.38 111.714 116.162C112.09 116.843 112.336 117.588 112.44 118.359C112.362 118.359 112.067 117.554 111.401 116.328C111.017 115.629 110.476 115.028 109.821 114.573C109.437 114.327 109.007 114.163 108.556 114.092C108.051 114.034 107.541 114.034 107.036 114.092C104.878 114.279 102.926 114.426 101.504 114.504C100.744 114.609 99.9743 114.632 99.209 114.573Z" fill="#654742"/>
<path d="M111.548 130.442C111.469 130.442 111.616 129.265 111.548 127.392C111.489 126.296 111.342 125.207 111.106 124.136C110.841 122.959 110.459 121.546 109.282 120.86C108.681 120.541 108.037 120.313 107.369 120.183L105.467 119.752C104.394 119.51 103.306 119.343 102.21 119.251C101.199 119.216 100.187 119.242 99.1796 119.33C99.4231 119.189 99.694 119.102 99.974 119.075C100.717 118.93 101.473 118.867 102.23 118.888C103.348 118.927 104.46 119.062 105.555 119.291C106.173 119.408 106.82 119.546 107.516 119.703C108.233 119.831 108.925 120.073 109.566 120.418C110.217 120.813 110.725 121.404 111.018 122.105C111.285 122.734 111.476 123.393 111.587 124.067C111.811 125.168 111.929 126.288 111.94 127.412C111.952 128.166 111.906 128.92 111.803 129.668C111.76 129.938 111.673 130.199 111.548 130.442Z" fill="#654742"/>
<path d="M105.937 124.842C106.172 125.861 106.255 126.908 106.183 127.951V128.255L105.879 128.196C105.706 128.181 105.532 128.181 105.359 128.196C104.544 128.227 103.775 128.58 103.221 129.177C102.779 129.638 102.642 130.03 102.563 130.001C102.485 129.972 102.563 129.53 102.946 128.952C103.227 128.576 103.591 128.27 104.009 128.057C104.428 127.845 104.889 127.731 105.359 127.726C105.57 127.728 105.78 127.751 105.986 127.794L105.682 128.039C105.606 126.967 105.692 125.889 105.937 124.842Z" fill="#654742"/>
<path d="M105.957 125.362C104.908 125.406 103.858 125.357 102.818 125.215C101.766 125.242 100.712 125.18 99.67 125.028C100.686 124.674 101.771 124.563 102.838 124.705C103.915 124.679 104.982 124.904 105.957 125.362Z" fill="#654742"/>
<path d="M99.925 124.558C99.9843 125.679 99.744 126.796 99.2286 127.794C98.8744 128.863 98.2452 129.821 97.4043 130.57C97.2866 130.482 98.0713 129.256 98.7579 127.628C99.4444 125.999 99.7779 124.528 99.925 124.558Z" fill="#654742"/>
<path d="M161.873 313.099L160.48 357.5L215.71 359.521C215.582 354.234 187.394 342.592 187.394 342.592L189.463 314.148L161.873 313.099Z" fill="#DF4903"/>
<g opacity="0.6">
<path opacity="0.6" d="M170.406 339.571C169.868 339.714 169.402 340.05 169.097 340.515C168.791 340.98 168.667 341.541 168.749 342.092C168.871 342.633 169.197 343.107 169.659 343.415C170.12 343.724 170.683 343.843 171.23 343.749C171.8 343.6 172.293 343.245 172.614 342.751C172.935 342.258 173.061 341.662 172.966 341.081C172.781 340.53 172.39 340.071 171.874 339.802C171.358 339.533 170.758 339.475 170.2 339.639" fill="white"/>
</g>
<g opacity="0.6">
<path opacity="0.6" d="M160.48 357.5L160.794 353.028L213.63 356.637C213.63 356.637 216.053 357.804 215.71 359.521L160.48 357.5Z" fill="white"/>
</g>
<path d="M188.306 342.347C188.306 342.611 186.933 342.69 185.569 343.504C184.206 344.318 183.461 345.466 183.215 345.318C182.97 345.171 183.431 343.661 185.099 342.7C186.766 341.738 188.365 342.101 188.306 342.347Z" fill="#263238"/>
<path d="M194.004 344.956C194.063 345.22 192.876 345.632 191.915 346.741C190.954 347.849 190.65 349.045 190.385 349.026C190.12 349.006 190.003 347.466 191.219 346.083C192.435 344.701 194.014 344.701 194.004 344.956Z" fill="#263238"/>
<path d="M197.045 352.027C196.8 352.027 196.466 350.713 197.221 349.261C197.977 347.81 199.242 347.3 199.35 347.496C199.458 347.692 198.644 348.477 198.055 349.693C197.467 350.909 197.31 352.027 197.045 352.027Z" fill="#263238"/>
<path d="M188.051 335.814C187.933 336.06 186.707 335.638 185.177 335.687C183.647 335.736 182.441 336.177 182.313 335.942C182.186 335.706 183.363 334.785 185.157 334.755C186.952 334.726 188.198 335.608 188.051 335.814Z" fill="#263238"/>
<path d="M186.982 329.213C186.982 329.331 185.903 329.459 184.216 329.096C183.225 328.886 182.263 328.557 181.352 328.115C180.811 327.851 180.29 327.55 179.792 327.213C179.487 327.031 179.213 326.803 178.978 326.536C178.81 326.337 178.712 326.087 178.7 325.827C178.687 325.566 178.761 325.309 178.91 325.094C179.052 324.912 179.236 324.765 179.445 324.666C179.655 324.567 179.885 324.519 180.116 324.525C180.466 324.532 180.814 324.591 181.146 324.702C181.732 324.863 182.301 325.083 182.843 325.359C183.762 325.811 184.603 326.407 185.334 327.124C186.57 328.36 186.972 329.38 186.884 329.429C186.795 329.478 186.158 328.645 184.922 327.615C184.182 327.023 183.372 326.526 182.509 326.134C182.001 325.914 181.476 325.734 180.94 325.594C180.351 325.418 179.861 325.388 179.694 325.594C179.645 325.692 179.636 325.732 179.753 325.908C179.924 326.103 180.122 326.271 180.342 326.408C180.822 326.742 181.323 327.036 181.774 327.301C182.616 327.755 183.499 328.13 184.412 328.419C185.286 328.624 186.145 328.889 186.982 329.213Z" fill="#263238"/>
<path d="M186.609 329.586C186.511 329.586 186.021 328.605 185.981 326.889C185.968 325.248 186.402 323.633 187.237 322.22C187.4 321.861 187.652 321.55 187.97 321.317C188.288 321.083 188.66 320.935 189.051 320.886C189.297 320.903 189.532 320.988 189.732 321.132C189.931 321.276 190.086 321.473 190.179 321.7C190.31 322.03 190.392 322.377 190.424 322.73C190.496 323.351 190.473 323.98 190.356 324.594C190.164 325.623 189.723 326.59 189.071 327.409C187.943 328.801 186.805 329.076 186.786 328.988C186.766 328.9 187.659 328.36 188.531 327.026C189.044 326.253 189.379 325.375 189.512 324.457C189.591 323.927 189.591 323.388 189.512 322.858C189.444 322.269 189.247 321.789 189.022 321.877C188.796 321.965 188.267 322.289 188.041 322.75C187.747 323.215 187.501 323.707 187.305 324.221C186.965 325.102 186.75 326.027 186.668 326.967C186.511 328.537 186.727 329.557 186.609 329.586Z" fill="#263238"/>
<path d="M79.0239 313.422L93.0103 355.597L40.635 373.252C39.2521 368.152 62.9583 348.967 62.9583 348.967L52.8951 322.318L79.0239 313.422Z" fill="#DF4903"/>
<g opacity="0.6">
<path opacity="0.6" d="M78.3864 341.238C78.9449 341.224 79.4891 341.416 79.9145 341.778C80.3399 342.14 80.6166 342.646 80.6913 343.2C80.7282 343.754 80.5516 344.302 80.1979 344.73C79.8441 345.159 79.3399 345.436 78.7886 345.505C78.1994 345.52 77.6255 345.317 77.1767 344.935C76.7278 344.553 76.4357 344.019 76.3561 343.435C76.3561 342.327 77.5135 341.071 78.6022 341.258" fill="white"/>
</g>
<g opacity="0.6">
<path opacity="0.6" d="M93.0103 355.588L91.4312 351.39L41.812 369.898C41.812 369.898 39.8503 371.702 40.635 373.252L93.0103 355.588Z" fill="white"/>
</g>
<path d="M62.0265 348.987C62.1147 349.232 63.4388 348.918 64.9689 349.32C66.499 349.722 67.5386 350.566 67.7446 350.379C67.9506 350.193 67.058 348.859 65.1945 348.418C63.3309 347.976 61.8892 348.771 62.0265 348.987Z" fill="#263238"/>
<path d="M57.2597 353.106C57.2597 353.371 58.5348 353.439 59.7706 354.224C61.0064 355.009 61.644 356.078 61.8892 355.98C62.1344 355.882 61.8205 354.381 60.261 353.43C58.7015 352.478 57.2597 352.861 57.2597 353.106Z" fill="#263238"/>
<path d="M56.3966 360.737C56.6418 360.737 56.5732 359.315 55.4158 358.138C54.2584 356.961 52.8951 356.804 52.8657 357.049C52.8363 357.294 53.8465 357.804 54.7292 358.785C55.612 359.766 56.1318 360.796 56.3966 360.737Z" fill="#263238"/>
<path d="M60.3984 342.651C60.5847 342.857 61.644 342.101 63.1152 341.67C64.5864 341.238 65.8811 341.356 65.94 341.101C65.9988 340.846 64.606 340.287 62.87 340.767C61.134 341.248 60.2022 342.494 60.3984 342.651Z" fill="#263238"/>
<path d="M59.5548 336.02C59.5548 336.128 60.6533 335.942 62.1736 335.118C63.0614 334.634 63.8852 334.041 64.6256 333.353C65.0676 332.944 65.4836 332.508 65.8713 332.048C66.1095 331.786 66.3048 331.488 66.4499 331.165C66.5584 330.927 66.5835 330.659 66.5212 330.405C66.459 330.15 66.3129 329.924 66.1067 329.763C65.9192 329.628 65.7025 329.539 65.4741 329.503C65.2458 329.467 65.0122 329.485 64.7924 329.557C64.4438 329.664 64.1133 329.823 63.8115 330.028C63.2994 330.354 62.817 330.725 62.3698 331.136C61.6195 331.833 60.984 332.644 60.4866 333.539C59.9512 334.318 59.664 335.241 59.6627 336.187C59.8098 336.187 60.1335 335.206 61.0555 333.882C61.5959 333.103 62.2318 332.394 62.9484 331.773C63.3726 331.411 63.8252 331.083 64.302 330.793C64.8022 330.459 65.2828 330.302 65.4985 330.498C65.7143 330.695 65.6064 330.606 65.4985 330.812C65.3851 331.047 65.2399 331.265 65.067 331.46C64.7223 331.902 64.3488 332.322 63.9489 332.715C63.274 333.396 62.5349 334.01 61.7421 334.549C60.467 335.481 59.496 335.883 59.5548 336.02Z" fill="#263238"/>
<path d="M60.006 336.275C60.1139 336.275 60.3101 335.196 59.8491 333.509C59.3937 331.933 58.5192 330.509 57.3186 329.39C57.0584 329.092 56.726 328.866 56.3533 328.734C55.9805 328.602 55.58 328.568 55.1902 328.635C54.9587 328.717 54.756 328.865 54.6063 329.06C54.4567 329.254 54.3665 329.488 54.3467 329.733C54.3118 330.084 54.3283 330.437 54.3958 330.783C54.699 332.442 55.6433 333.915 57.0244 334.883C58.5152 335.863 59.6824 335.863 59.6726 335.746C58.8999 335.327 58.1531 334.862 57.4363 334.353C56.7291 333.757 56.1602 333.014 55.7689 332.176C55.5467 331.685 55.3916 331.167 55.3079 330.636C55.2 330.057 55.3079 329.537 55.4845 329.518C55.7139 329.519 55.9404 329.569 56.1486 329.666C56.3567 329.762 56.5417 329.902 56.6909 330.077C57.1049 330.441 57.4857 330.841 57.8286 331.273C58.4051 332.02 58.8709 332.846 59.2116 333.725C59.8099 335.236 59.8589 336.334 60.006 336.275Z" fill="#263238"/>
<path d="M66.4107 213.252C66.4107 213.252 45.8921 195.058 36.8883 195.215C27.8844 195.372 -1.64777 193.401 10.7399 234.32C23.2256 275.583 45.5881 338.678 46.1962 336.413L84.7224 319.503L69.0294 260.812C69.0294 260.812 121.473 261.4 131.605 260.076C141.737 258.752 160.686 245.364 160.686 245.364L157.665 319.523L197.879 317.287C197.879 317.287 203.528 228.2 205.156 209.898C206.569 193.96 188.659 176.07 170.386 180.101C158.46 182.739 115.804 212.85 115.804 212.85L66.4107 213.252Z" fill="#263238"/>
<path d="M162.069 205.975C162.131 206.627 162.131 207.284 162.069 207.936C162.001 209.309 161.902 211.075 161.795 213.213C161.589 217.676 161.441 223.835 161.334 230.652C161.226 237.468 161.098 243.638 160.863 248.1C160.755 250.337 160.618 252.141 160.5 253.387C160.481 254.048 160.395 254.705 160.245 255.349C160.193 254.696 160.193 254.04 160.245 253.387C160.245 252.014 160.323 250.239 160.382 248.11C160.461 243.52 160.559 237.41 160.667 230.652C160.775 223.894 160.99 217.666 161.314 213.203C161.481 210.977 161.647 209.172 161.804 207.926C161.839 207.27 161.928 206.617 162.069 205.975Z" fill="#455A64"/>
<path d="M160.441 240.695C159.737 240.084 159.137 239.362 158.666 238.557C156.188 234.777 154.828 230.374 154.743 225.856C154.664 224.926 154.747 223.991 154.988 223.09C155.213 223.09 154.899 227.356 156.469 232.29C158.038 237.223 160.627 240.578 160.441 240.695Z" fill="#455A64"/>
<path d="M105.722 255.721C105.653 255.721 105.575 254.74 105.261 252.897C104.825 250.338 104.118 247.832 103.152 245.423C101.724 241.858 99.7626 238.532 97.3357 235.556C94.351 231.908 90.687 228.873 86.5468 226.621C77.8568 221.579 70.177 216.616 64.8218 212.752C62.1442 210.79 60.0355 209.162 58.6427 207.946C57.9365 207.358 57.4167 206.857 57.0636 206.524C56.8738 206.364 56.7027 206.183 56.5536 205.984C56.5536 205.984 57.3578 206.602 58.8094 207.74C60.261 208.878 62.3894 210.486 65.0964 212.36C70.5105 216.126 78.2099 221.001 86.9195 226.091C91.1187 228.39 94.8246 231.493 97.8261 235.222C100.266 238.263 102.212 241.669 103.593 245.315C104.547 247.762 105.205 250.313 105.555 252.916C105.657 253.618 105.72 254.326 105.741 255.035C105.759 255.264 105.752 255.494 105.722 255.721Z" fill="#455A64"/>
<path d="M119.914 212.271C119.747 212.864 119.524 213.439 119.247 213.988C118.766 215.077 118.119 216.656 117.374 218.637C113.47 228.966 111.66 239.968 112.048 251.004C112.116 253.112 112.224 254.819 112.332 255.996C112.421 256.606 112.448 257.224 112.411 257.84C112.242 257.247 112.127 256.639 112.067 256.025C111.881 254.858 111.705 253.142 111.577 251.023C110.921 239.922 112.75 228.814 116.932 218.509C117.737 216.548 118.453 214.978 119.012 213.929C119.257 213.348 119.559 212.793 119.914 212.271Z" fill="#455A64"/>
<path d="M42.7634 206.936C42.959 207.042 43.1459 207.163 43.3224 207.299L44.8623 208.427C45.2056 208.672 45.5685 208.946 45.9706 209.25C46.3728 209.555 46.7553 209.947 47.1966 210.339C48.2089 211.207 49.1624 212.141 50.0508 213.135L51.6103 214.871C52.1105 215.508 52.5911 216.185 53.1305 216.832L53.9348 217.901C54.1898 218.274 54.4252 218.666 54.6704 219.059C55.1608 219.853 55.6512 220.648 56.1809 221.501C58.2303 225.227 59.9563 229.122 61.3399 233.143C62.8602 237.4 64.0077 241.558 65.0376 245.325L67.7054 255.358C68.49 258.213 69.1178 260.517 69.5984 262.097C69.8141 262.862 69.9809 263.47 70.1182 263.931C70.1809 264.143 70.23 264.359 70.2653 264.578C70.161 264.382 70.0788 264.175 70.0201 263.96C69.873 263.499 69.667 262.901 69.4218 262.155C68.8922 260.586 68.2056 258.291 67.3817 255.447L64.6158 245.442C63.5566 241.676 62.3992 237.537 60.8888 233.3C59.515 229.305 57.8124 225.43 55.7983 221.717C55.3177 220.863 54.8175 220.069 54.3173 219.284C54.0721 218.892 53.8465 218.5 53.5915 218.127L52.8167 217.068C52.2969 216.371 51.8359 215.685 51.3258 215.057L49.8056 213.311C48.9367 212.313 48.0064 211.369 47.0201 210.486C46.5885 210.084 46.2158 209.692 45.8235 209.368L44.7544 208.525L43.2636 207.328C43.0842 207.214 42.9167 207.083 42.7634 206.936Z" fill="#455A64"/>
<path d="M65.9889 212.889C73.3058 217.715 81.3681 218.853 89.9894 220.5C94.9621 221.481 100.16 222.315 105.015 220.883C115.422 217.813 125.475 205.965 132.154 201.747L104.25 208.829L65.9889 212.889Z" fill="#DF4903"/>
</svg>
