<svg width="169" height="210" viewBox="0 0 169 210" fill="none" xmlns="http://www.w3.org/2000/svg">
<path d="M0 187.14C0 186.937 0.06595 186.774 0.198188 186.653C0.330091 186.531 0.497815 186.47 0.701026 186.47H16.7339C16.9167 186.47 17.0818 186.525 17.2291 186.637C17.3761 186.749 17.4601 186.916 17.4805 187.139V189.803C17.4805 190.006 17.4169 190.184 17.29 190.336C17.1628 190.488 16.9777 190.564 16.7339 190.564H10.9426V208.375C10.9426 208.558 10.879 208.721 10.7521 208.863C10.6252 209.005 10.4498 209.076 10.2265 209.076H7.22421C7.04142 209.076 6.87604 209.01 6.72907 208.878C6.58177 208.746 6.50811 208.579 6.50811 208.376V190.565H0.701363C0.498152 190.565 0.330428 190.501 0.198525 190.374C0.0662871 190.248 0.000332041 190.057 0.000332041 189.803V187.14H0Z" fill="url(#paint0_linear_1001_2305)"/>
<path d="M21.062 187.14C21.062 186.957 21.1176 186.8 21.2291 186.668C21.3405 186.536 21.5076 186.47 21.7302 186.47H24.7526C24.9247 186.47 25.0867 186.531 25.2387 186.653C25.3907 186.774 25.4667 186.937 25.4667 187.14V208.406C25.4667 208.853 25.2287 209.076 24.753 209.076H21.7306C21.285 209.076 21.0623 208.853 21.0623 208.406V187.14H21.062Z" fill="url(#paint1_linear_1001_2305)"/>
<path d="M28.9718 187.14C28.9718 186.937 29.0377 186.774 29.17 186.653C29.3019 186.531 29.4696 186.47 29.6728 186.47H45.7061C45.8889 186.47 46.0539 186.525 46.2012 186.637C46.3482 186.749 46.4322 186.916 46.4526 187.139V189.803C46.4526 190.006 46.389 190.184 46.2622 190.336C46.1349 190.488 45.9498 190.564 45.7061 190.564H39.9147V208.375C39.9147 208.558 39.8511 208.721 39.7242 208.863C39.5974 209.005 39.4219 209.076 39.1986 209.076H36.1963C36.0135 209.076 35.8482 209.01 35.7012 208.878C35.5539 208.746 35.4802 208.579 35.4802 208.376V190.565H29.6735C29.4703 190.565 29.3026 190.501 29.1707 190.374C29.0384 190.248 28.9725 190.057 28.9725 189.803V187.14H28.9718Z" fill="url(#paint2_linear_1001_2305)"/>
<path d="M50.0338 187.14C50.0338 186.967 50.0921 186.812 50.2086 186.675C50.3251 186.539 50.4848 186.47 50.6873 186.47H53.7248C53.8968 186.47 54.0589 186.536 54.2109 186.668C54.3628 186.8 54.4388 186.957 54.4388 187.14V195.025H64.6653V187.14C64.6653 186.957 64.7259 186.8 64.8475 186.668C64.9687 186.536 65.131 186.47 65.3336 186.47H68.3255C68.528 186.47 68.7025 186.529 68.8494 186.645C68.9961 186.762 69.0697 186.922 69.0697 187.125V208.406C69.0697 208.853 68.8317 209.076 68.356 209.076H65.3336C64.888 209.076 64.6653 208.853 64.6653 208.406V199.196H54.4388V208.406C54.4388 208.853 54.1908 209.076 53.6946 209.076H50.6876C50.2521 209.076 50.0345 208.869 50.0345 208.452V187.14H50.0338Z" fill="url(#paint3_linear_1001_2305)"/>
<path d="M74.0067 187.201C74.0067 186.713 74.23 186.47 74.6772 186.47H89.369C89.6331 186.47 89.821 186.544 89.9328 186.692C90.0446 186.839 90.1005 187.025 90.1005 187.249V189.938C90.1005 190.122 90.0369 190.285 89.9097 190.427C89.7828 190.57 89.5923 190.641 89.3382 190.641H78.5021V195.254H86.8538C87.0574 195.233 87.2201 195.277 87.3419 195.383C87.4638 195.49 87.5247 195.67 87.5247 195.924V198.679C87.5247 198.862 87.4738 199.024 87.3724 199.166C87.2706 199.309 87.1079 199.38 86.8843 199.38H78.5021V204.905H89.7342C90.0188 204.905 90.207 204.967 90.2983 205.089C90.3897 205.211 90.4353 205.399 90.4353 205.654V208.435C90.4353 208.863 90.2116 209.077 89.7647 209.077H74.6766C74.4938 209.077 74.3361 209.026 74.2042 208.924C74.0723 208.823 74.006 208.661 74.006 208.437V187.201H74.0067Z" fill="url(#paint4_linear_1001_2305)"/>
<path d="M103.618 187.185C103.618 186.708 103.847 186.47 104.304 186.47H113.836C114.718 186.47 115.548 186.635 116.325 186.965C117.101 187.295 117.776 187.744 118.35 188.312C118.924 188.881 119.375 189.55 119.705 190.322C120.035 191.093 120.2 191.925 120.2 192.818C120.2 193.64 120.053 194.406 119.758 195.117C119.463 195.827 119.057 196.451 118.539 196.989C118.956 197.293 119.332 197.643 119.667 198.039C120.002 198.435 120.29 198.862 120.533 199.318C120.774 199.774 120.962 200.259 121.097 200.772C121.23 201.284 121.298 201.81 121.298 202.347C121.298 203.251 121.127 204.108 120.787 204.92C120.446 205.732 119.984 206.448 119.4 207.066C118.816 207.686 118.128 208.175 117.335 208.535C116.542 208.895 115.694 209.076 114.79 209.076H104.305C104.101 209.076 103.936 209.022 103.809 208.916C103.682 208.809 103.619 208.644 103.619 208.421V187.185H103.618ZM115.796 192.894C115.796 192.508 115.727 192.148 115.589 191.813C115.452 191.478 115.261 191.189 115.017 190.945C114.772 190.701 114.479 190.511 114.139 190.374C113.798 190.237 113.424 190.169 113.016 190.169H108.023V195.68H112.97C113.378 195.68 113.754 195.609 114.101 195.466C114.446 195.324 114.744 195.129 114.994 194.88C115.243 194.632 115.439 194.338 115.582 193.997C115.724 193.657 115.796 193.29 115.796 192.894ZM116.786 202.226C116.786 201.881 116.725 201.543 116.603 201.213C116.481 200.884 116.313 200.587 116.099 200.323C115.886 200.059 115.631 199.838 115.336 199.66C115.04 199.483 114.72 199.364 114.374 199.303C114.17 199.272 113.965 199.244 113.756 199.219C113.547 199.194 113.336 199.181 113.122 199.181H108.023V205.362H113.122C113.336 205.362 113.544 205.354 113.748 205.339C113.952 205.324 114.155 205.296 114.359 205.255C114.705 205.204 115.025 205.088 115.321 204.905C115.616 204.723 115.873 204.494 116.092 204.22C116.31 203.946 116.481 203.639 116.603 203.299C116.725 202.959 116.786 202.601 116.786 202.226Z" fill="url(#paint5_linear_1001_2305)"/>
<path d="M123.812 197.796C123.812 196.73 123.949 195.7 124.224 194.705C124.498 193.711 124.889 192.782 125.397 191.92C125.905 191.057 126.512 190.27 127.218 189.56C127.924 188.85 128.709 188.243 129.572 187.741C130.436 187.239 131.363 186.848 132.354 186.569C133.344 186.29 134.378 186.15 135.456 186.15C136.522 186.15 137.551 186.29 138.542 186.569C139.532 186.848 140.459 187.239 141.323 187.741C142.186 188.243 142.974 188.85 143.685 189.56C144.396 190.271 145.004 191.057 145.506 191.92C146.009 192.782 146.401 193.711 146.68 194.705C146.959 195.7 147.099 196.735 147.099 197.811C147.099 198.886 146.959 199.917 146.68 200.901C146.401 201.885 146.009 202.809 145.506 203.672C145.004 204.535 144.396 205.318 143.685 206.024C142.974 206.729 142.186 207.332 141.323 207.835C140.459 208.337 139.532 208.726 138.542 209C137.551 209.274 136.517 209.411 135.44 209.411C134.363 209.411 133.329 209.274 132.338 209C131.348 208.726 130.421 208.335 129.557 207.827C128.694 207.32 127.909 206.714 127.203 206.009C126.497 205.303 125.892 204.522 125.389 203.664C124.886 202.806 124.497 201.883 124.223 200.893C123.949 199.904 123.812 198.871 123.812 197.796ZM128.216 197.765C128.216 198.79 128.402 199.749 128.773 200.642C129.143 201.536 129.651 202.312 130.296 202.971C130.942 203.631 131.704 204.154 132.583 204.539C133.461 204.925 134.414 205.118 135.441 205.118C136.456 205.118 137.404 204.925 138.283 204.539C139.161 204.154 139.926 203.631 140.576 202.971C141.226 202.312 141.737 201.535 142.108 200.642C142.478 199.75 142.664 198.791 142.664 197.765C142.664 196.751 142.478 195.797 142.108 194.903C141.737 194.01 141.226 193.231 140.576 192.566C139.926 191.902 139.161 191.376 138.283 190.991C137.404 190.605 136.456 190.412 135.441 190.412C134.414 190.412 133.461 190.605 132.583 190.991C131.704 191.377 130.942 191.902 130.296 192.566C129.651 193.231 129.143 194.01 128.773 194.903C128.402 195.797 128.216 196.75 128.216 197.765Z" fill="url(#paint6_linear_1001_2305)"/>
<path d="M149.309 208.543C149.411 208.381 149.512 208.215 149.614 208.048C149.716 207.881 149.822 207.711 149.934 207.538L156.625 197.659C155.396 195.832 154.179 194.025 152.975 192.239C151.771 190.453 150.63 188.763 149.553 187.17L149.477 187.064C149.386 186.911 149.34 186.795 149.34 186.714C149.34 186.602 149.395 186.539 149.507 186.523C149.62 186.508 149.746 186.491 149.889 186.47H153.485C153.709 186.47 153.894 186.518 154.041 186.615C154.189 186.711 154.338 186.871 154.491 187.094L159.109 193.944L163.757 187.094C163.92 186.871 164.075 186.711 164.222 186.615C164.369 186.518 164.554 186.47 164.778 186.47H168.405C168.568 186.48 168.69 186.503 168.771 186.539C168.853 186.575 168.893 186.643 168.893 186.744C168.893 186.835 168.832 186.972 168.71 187.155C167.623 188.748 166.47 190.441 165.251 192.232C164.031 194.023 162.812 195.832 161.593 197.659L168.786 208.284C168.878 208.427 168.936 208.546 168.962 208.642C168.987 208.738 169 208.812 169 208.863C169 209.005 168.888 209.076 168.664 209.076H164.824C164.682 209.076 164.559 209.051 164.458 209C164.356 208.949 164.26 208.879 164.169 208.787C164.077 208.696 163.988 208.584 163.902 208.452C163.815 208.32 163.716 208.173 163.605 208.011C162.842 206.895 162.093 205.783 161.357 204.677C160.62 203.571 159.871 202.46 159.109 201.343C158.296 202.54 157.491 203.735 156.693 204.928C155.895 206.121 155.095 207.315 154.293 208.513C154.069 208.888 153.785 209.076 153.439 209.076H149.568C149.344 209.076 149.233 209 149.233 208.848C149.233 208.817 149.243 208.762 149.263 208.68C149.283 208.599 149.299 208.553 149.309 208.543Z" fill="url(#paint7_linear_1001_2305)"/>
<path d="M168.022 80.3736C168.022 82.4084 168.022 84.4432 168.022 86.478C167.997 86.6268 167.957 86.7746 167.948 86.9244C167.833 88.9475 167.768 90.9683 167.443 92.981C167.055 95.3779 166.904 97.8086 166.301 100.177C165.89 101.792 165.696 103.458 165.162 105.049C164.735 106.322 164.536 107.659 164.026 108.918C163.579 110.019 163.373 111.207 162.854 112.296C162.488 113.064 162.255 113.893 161.933 114.686C161.213 116.457 160.437 118.195 159.6 119.913C158.89 121.374 158.118 122.796 157.347 124.224C156.518 125.76 155.573 127.22 154.662 128.705C154.549 128.891 154.487 129.122 154.338 129.27C153.762 129.843 153.464 130.603 152.966 131.231C152.321 132.046 151.802 132.962 151.135 133.756C150.589 134.407 150.1 135.099 149.567 135.757C148.956 136.513 148.336 137.267 147.703 138.001C147.139 138.655 146.546 139.295 145.941 139.918C145.443 140.433 145.03 141.042 144.484 141.496C143.887 141.991 143.39 142.583 142.849 143.122C142.343 143.626 141.793 144.093 141.294 144.609C140.416 145.517 139.382 146.272 138.439 147.118C137.27 148.168 135.993 149.085 134.777 150.076C133.795 150.876 132.733 151.582 131.683 152.295C130.549 153.065 129.408 153.829 128.235 154.537C126.844 155.375 125.417 156.155 124.001 156.951C123.722 157.108 123.385 157.179 123.14 157.372C122.327 158.016 121.335 158.325 120.428 158.763C119.116 159.396 117.775 159.99 116.42 160.544C115.212 161.038 113.976 161.456 112.779 161.981C111.688 162.459 110.506 162.697 109.383 163.114C108.043 163.611 106.619 163.859 105.247 164.281C103.75 164.742 102.186 164.953 100.658 165.312C98.236 165.881 95.7375 166.014 93.2843 166.424C92.301 166.589 91.2876 166.563 90.2927 166.668C89.3817 166.765 88.4598 166.677 87.5555 166.851C85.5184 166.851 83.4813 166.851 81.4441 166.851C81.2777 166.825 81.112 166.784 80.9446 166.775C78.953 166.66 76.9631 166.6 74.9809 166.28C72.5477 165.888 70.0787 165.738 67.676 165.122C66.1089 164.72 64.4909 164.541 62.9452 164.019C61.6242 163.573 60.2342 163.369 58.9269 162.839C57.8566 162.405 56.7026 162.201 55.639 161.707C54.8529 161.341 54.0056 161.111 53.1978 160.774C51.4332 160.037 49.6849 159.275 47.9642 158.436C46.5186 157.731 45.0958 156.995 43.6957 156.205C42.4999 155.53 41.3195 154.838 40.1608 154.098C39.0333 153.378 37.9168 152.65 36.818 151.886C35.7467 151.14 34.6969 150.374 33.6574 149.586C32.6721 148.839 31.7163 148.058 30.7522 147.287C30.0722 146.742 29.4097 146.168 28.7786 145.582C28.1958 145.039 27.5975 144.495 27.0153 143.952C26.4549 143.428 25.9009 142.884 25.3622 142.345C24.4195 141.404 23.5072 140.423 22.607 139.435C21.7764 138.523 20.9324 137.615 20.1627 136.661C19.211 135.481 18.2348 134.312 17.3784 133.053C16.7775 132.17 16.0925 131.344 15.4879 130.464C14.7601 129.404 14.058 128.325 13.3811 127.233C12.6593 126.068 11.9218 124.907 11.3001 123.688C10.8284 122.763 10.3052 121.866 9.8646 120.925C9.2553 119.623 8.56432 118.358 7.99586 117.04C7.21951 115.239 6.50676 113.41 5.80339 111.579C5.39429 110.514 5.13784 109.397 4.73544 108.324C4.22825 106.97 3.98487 105.53 3.55334 104.145C3.08766 102.651 2.88143 101.087 2.52054 99.5612C1.94505 97.1268 1.81382 94.6138 1.40271 92.147C1.24169 91.1816 1.26512 90.1868 1.16234 89.2097C1.0666 88.3001 1.14694 87.3805 0.978882 86.4773C0.978882 84.4426 0.978882 82.4078 0.978882 80.373C1.00399 80.2242 1.0435 80.0764 1.0522 79.9266C1.16937 77.9038 1.23198 75.8827 1.55872 73.87C1.9474 71.4734 2.09202 69.0414 2.70099 66.6739C3.11611 65.0601 3.30226 63.3928 3.83891 61.8021C4.27345 60.5136 4.47398 59.1603 4.99758 57.887C5.43614 56.8203 5.62997 55.6636 6.12712 54.6012C6.49437 53.8167 6.7247 52.97 7.06216 52.1628C7.79868 50.4002 8.55227 48.6513 9.4016 46.9372C10.1374 45.4525 10.9081 43.9922 11.7035 42.5393C12.5177 41.0529 13.4337 39.6341 14.3125 38.1898C14.4347 37.9892 14.5033 37.7404 14.6637 37.5812C15.2405 37.0084 15.5371 36.2473 16.0353 35.6197C16.681 34.8057 17.1949 33.8842 17.8685 33.0967C18.3995 32.4757 18.8531 31.8015 19.3676 31.1712C20.0041 30.3917 20.6468 29.6136 21.2983 28.8502C21.8584 28.1938 22.4563 27.5571 23.0603 26.9328C23.5584 26.4178 23.9719 25.8095 24.5169 25.3548C25.1125 24.8579 25.6109 24.2673 26.1526 23.7289C26.6591 23.2253 27.1901 22.7241 27.711 22.2472C28.6434 21.3935 29.5885 20.5438 30.556 19.7236C31.7538 18.708 33.0005 17.7553 34.2245 16.7746C35.2399 15.9606 36.3259 15.2317 37.4029 14.498C38.4936 13.7546 39.5937 13.0213 40.7229 12.3388C42.0399 11.5426 43.3901 10.8009 44.7322 10.0469C45.0995 9.84055 45.5347 9.73321 45.8604 9.48041C46.6796 8.84406 47.6656 8.52605 48.5725 8.08866C49.8838 7.45599 51.2263 6.86411 52.5801 6.30701C53.8027 5.80408 55.0575 5.38609 56.2687 4.85005C57.3263 4.38224 58.4759 4.1505 59.5706 3.75692C61.0112 3.23894 62.5284 2.94802 63.9994 2.50729C65.4038 2.08629 66.8641 1.88498 68.2933 1.54992C70.7807 0.966397 73.3465 0.820934 75.869 0.415982C76.8536 0.257814 77.866 0.279216 78.8606 0.172544C79.721 0.0802517 80.5918 0.174888 81.4451 0C83.4823 0 85.5194 0 87.5565 0C87.6891 0.0244108 87.8207 0.0631973 87.9539 0.0708883C89.9964 0.187926 92.0379 0.246445 94.07 0.576827C96.469 0.967065 98.9042 1.11052 101.274 1.72045C102.89 2.13644 104.562 2.31401 106.154 2.85439C107.427 3.28609 108.748 3.54692 110.029 3.98297C111.985 4.64875 113.928 5.33191 115.847 6.10303C117.158 6.63003 118.444 7.20887 119.741 7.7663C120.02 7.88668 120.337 7.95356 120.577 8.12678C121.424 8.73839 122.427 9.04536 123.331 9.5513C124.308 10.0977 125.314 10.6123 126.279 11.1791C127.805 12.0746 129.325 12.9812 130.785 13.989C131.928 14.7779 133.064 15.5741 134.195 16.3806C135.202 17.0989 136.158 17.8784 137.126 18.6438C138.161 19.4624 139.202 20.2833 140.155 21.1919C140.604 21.6196 141.093 21.9998 141.53 22.4382C142.084 22.9943 142.597 23.6005 143.2 24.0971C143.813 24.6017 144.3 25.2197 144.875 25.756C145.471 26.3118 145.934 27.0087 146.526 27.5698C147 28.0189 147.435 28.5161 147.831 29.008C148.48 29.8139 149.141 30.6231 149.794 31.422C150.629 32.4422 151.401 33.5103 152.216 34.5433C153.124 35.6936 153.887 36.9596 154.683 38.1945C155.418 39.3324 156.167 40.466 156.808 41.6561C157.357 42.6737 157.92 43.6889 158.49 44.6898C159.019 45.6207 159.463 46.5952 159.929 47.5455C160.576 48.866 161.168 50.2257 161.729 51.5943C162.217 52.7851 162.621 54.008 163.15 55.1844C163.631 56.2548 163.851 57.4235 164.262 58.5297C164.783 59.9305 165.043 61.4199 165.483 62.8547C165.922 64.2876 166.13 65.7804 166.473 67.2407C167.056 69.7252 167.199 72.2877 167.607 74.8063C167.763 75.7731 167.743 76.7669 167.846 77.744C167.937 78.6187 167.853 79.5046 168.022 80.3736ZM73.4211 101.727C73.4211 101.729 73.4211 101.73 73.4211 101.732C63.0661 101.732 52.7107 101.731 42.3556 101.732C41.5257 101.732 41.5177 101.74 41.5177 102.547C41.5177 111.296 41.518 120.045 41.5213 128.794C41.522 130.587 42.6087 131.65 44.4229 131.65C55.8814 131.65 67.3402 131.65 78.7987 131.65C86.7772 131.65 94.756 131.651 102.734 131.65C104.292 131.65 105.403 130.545 105.402 128.997C105.402 128.641 105.393 128.285 105.393 127.929C105.392 119.468 105.393 111.007 105.391 102.546C105.391 101.773 105.351 101.736 104.588 101.728C104.419 101.726 104.249 101.727 104.079 101.727C93.8601 101.727 83.6406 101.727 73.4211 101.727ZM75.399 99.6926C84.3202 99.6465 95.3515 99.8257 106.383 99.6973C107.944 99.6792 108.212 99.4094 108.215 97.8468C108.22 95.6769 108.167 93.505 108.246 91.3378C108.307 89.6782 107.721 88.4292 106.48 87.3307C103.433 84.6322 100.437 81.8744 97.4576 79.1003C96.53 78.2365 95.5152 77.8396 94.2508 77.842C83.5582 77.864 72.8654 77.8587 62.1729 77.86C58.7953 77.8603 55.418 77.8573 52.0404 77.852C51.2015 77.8506 50.4151 78.0091 49.7793 78.598C46.4188 81.7096 43.054 84.8164 39.7102 87.9463C38.7912 88.8064 38.3309 89.9059 38.3614 91.1783C38.4129 93.3301 38.4219 95.4812 38.3677 97.6337C38.3242 99.3629 38.6834 99.6923 40.3955 99.6923C51.3602 99.6926 62.3242 99.6926 75.399 99.6926ZM119.836 47.4181C119.828 47.4181 119.821 47.4181 119.813 47.4181C119.813 46.8416 119.812 46.2654 119.813 45.6889C119.817 43.8749 119.822 42.0611 119.827 40.247C119.828 39.81 119.765 39.4411 119.212 39.3699C116.788 39.0572 114.422 38.4383 112.022 37.9965C107.457 37.1565 102.951 36.0383 98.3408 35.3903C95.4329 34.9816 92.8514 35.4495 90.3241 36.7951C88.4002 37.8193 86.6084 39.0358 84.887 40.3607C83.4367 41.4769 81.9108 42.5035 80.6517 43.8511C80.2028 44.3316 80.2135 44.3938 80.7926 44.6654C82.5469 45.4873 84.0969 46.5955 85.4645 47.9632C86.0179 48.5169 86.0232 48.5169 86.7233 48.133C88.1943 47.3261 89.6787 46.5437 91.1182 45.6796C91.8055 45.2669 92.5283 44.9155 93.3686 45.0161C93.9408 45.0847 94.5119 45.1683 95.078 45.2746C96.5889 45.5582 98.0144 46.0541 99.3324 46.8744C100.979 47.899 100.784 49.8277 99.948 50.8543C99.3223 51.6228 98.5021 52.0655 97.5527 52.2946C96.16 52.6306 94.7335 52.6848 93.3141 52.8045C91.5571 52.9523 89.7838 52.8858 88.0399 53.2085C86.5793 53.4787 85.1628 53.8816 83.9225 54.73C82.8318 55.4757 82.334 56.8453 82.6433 58.1354C82.9587 59.4499 83.8843 60.0335 85.1478 60.2455C86.1063 60.4063 87.0684 60.4702 88.0363 60.4708C91.0804 60.4735 94.1061 60.6956 97.0947 61.2881C99.5292 61.7706 101.971 61.9459 104.429 61.5456C106.922 61.1396 109.339 60.4762 111.466 59.0503C113.306 57.8161 115.295 56.8788 117.321 56.0104C117.851 55.7833 118.407 55.6298 118.977 55.5292C119.742 55.3947 119.837 55.27 119.836 54.4875C119.835 52.1311 119.836 49.7746 119.836 47.4181ZM73.705 73.1531C75.3836 73.1273 77.2647 72.6889 79.032 71.7867C82.7956 69.8653 85.051 66.7922 85.9874 62.7073C86.0815 62.2973 85.967 62.0926 85.5375 62.0609C85.2506 62.0398 84.965 61.9947 84.6808 61.9482C83.1351 61.6944 81.877 61.0239 81.2617 59.4921C80.5295 57.669 80.5908 54.5012 83.2646 53.058C83.7795 52.7801 83.7906 52.6453 83.4126 52.2053C80.4793 48.7898 76.8422 47.0262 72.2591 47.3877C64.4839 48.0009 59.034 55.2188 60.6185 62.8454C61.8753 68.8919 67.1581 73.1511 73.705 73.1531ZM121.349 47.3412C121.354 47.3412 121.359 47.3412 121.364 47.3412C121.364 50.0528 121.36 52.7644 121.366 55.476C121.369 56.649 121.783 57.0808 122.954 57.0878C124.973 57.1001 126.993 57.0898 129.012 57.0784C130.185 57.0721 130.64 56.6069 130.641 55.4409C130.642 51.6274 130.641 47.8144 130.641 44.0009C130.641 42.34 130.647 40.679 130.638 39.0181C130.633 38.0898 130.169 37.608 129.25 37.5408C129.098 37.5297 128.945 37.5254 128.792 37.5254C126.858 37.5244 124.924 37.5247 122.989 37.5247C122.972 37.5247 122.955 37.5247 122.938 37.525C121.82 37.5421 121.357 37.9875 121.353 39.1044C121.342 41.8501 121.349 44.5958 121.349 47.3412ZM73.5865 75.7119C74.1881 75.7212 75.0706 75.6861 75.942 75.5336C82.3698 74.4094 87.3423 69.5035 88.5655 63.0885C88.7353 62.1977 88.7152 62.199 87.8046 62.1579C87.2977 62.1348 87.0892 62.2923 87.0122 62.8149C86.7929 64.304 86.2472 65.6877 85.508 66.9975C82.0055 73.2039 74.5393 75.8941 68.1768 73.2403C61.6041 70.499 58.105 63.988 59.5961 57.2747C61.3507 49.3766 69.1801 44.6553 77.0177 46.7547C79.9604 47.5428 82.3289 49.1703 84.2251 51.5285C84.8013 52.2451 85.1197 52.2839 85.885 51.9013C86.2184 51.7348 86.1983 51.5736 86.0062 51.3185C82.2242 46.2969 77.2068 44.0093 70.9622 44.8713C62.3808 46.0564 56.4163 54.4093 57.9389 62.8852C59.2837 70.3719 65.6881 75.7182 73.5865 75.7119Z" fill="url(#paint8_linear_1001_2305)"/>
<path d="M72.2565 112.44C72.2759 111.914 72.2612 111.389 72.0968 110.882C72.0279 110.669 71.9569 110.451 71.7112 110.385C71.217 110.249 71.5036 109.907 71.6603 109.868C72.3657 109.696 72.4828 109.03 72.8414 108.576C73.217 108.1 73.1989 108.082 73.5551 108.602C73.7175 108.839 73.8856 109.076 74.0121 109.333C74.1166 109.545 74.2284 109.695 74.4801 109.734C74.7004 109.769 74.8444 109.944 74.8919 110.145C74.9579 110.421 74.6746 110.328 74.5531 110.407C74.365 110.53 74.302 110.729 74.2471 110.92C74.0235 111.695 74.0576 112.497 74.0382 113.292C74.0335 113.475 74.1196 113.587 74.3091 113.583C74.9368 113.569 75.5678 113.568 76.1547 113.296C76.3465 113.207 76.4868 113.07 76.5471 112.856C76.5785 112.745 76.4798 112.543 76.7021 112.549C76.8554 112.552 77.0429 112.629 77.0864 112.765C77.3157 113.481 78.007 113.765 78.4603 114.269C78.621 114.448 78.6495 114.561 78.458 114.723C78.2119 114.93 77.9936 115.172 77.7402 115.369C77.4992 115.556 77.2698 115.719 77.1925 116.052C77.142 116.27 76.9327 116.437 76.6977 116.429C76.4681 116.421 76.5933 116.187 76.5457 116.059C76.4891 115.908 76.39 115.796 76.2511 115.723C75.6415 115.402 74.9756 115.398 74.3141 115.407C74.0114 115.411 74.1152 115.676 74.1246 115.838C74.1976 117.073 74.2632 118.309 74.369 119.542C74.4614 120.618 74.3914 121.71 74.7051 122.768C74.7895 123.052 74.6033 123.325 74.4637 123.578C74.1741 124.103 73.7292 124.508 73.3764 124.985C73.2204 125.195 73.1172 125.122 72.9907 124.958C72.7105 124.597 72.4149 124.247 72.136 123.884C71.7426 123.372 71.6007 122.819 71.7734 122.168C72.0141 121.26 71.9603 120.316 72.0269 119.388C72.1119 118.205 72.1283 117.017 72.1882 115.832C72.205 115.504 72.1009 115.356 71.757 115.396C71.2863 115.45 70.8053 115.439 70.355 115.616C70.1149 115.71 69.8639 115.823 69.8384 116.12C69.7885 116.703 69.4146 116.417 69.3389 116.241C69.041 115.549 68.3932 115.211 67.9124 114.709C67.7604 114.551 67.7464 114.436 67.9128 114.289C68.1545 114.077 68.3761 113.839 68.6282 113.64C68.8679 113.45 69.1039 113.288 69.1752 112.95C69.2224 112.726 69.435 112.566 69.6643 112.563C69.9472 112.559 69.7768 112.822 69.8294 112.958C69.896 113.13 70.0132 113.239 70.1692 113.315C70.7557 113.604 71.3874 113.579 72.0152 113.572C72.2609 113.569 72.2515 113.37 72.2559 113.202C72.2612 112.949 72.2565 112.695 72.2565 112.44Z" fill="url(#paint9_linear_1001_2305)"/>
<path d="M73.0646 84.7993C67.4132 84.7993 61.7615 84.7996 56.11 84.7983C55.8898 84.7983 55.6681 84.798 55.4492 84.7762C54.7441 84.7064 54.4659 84.4071 54.4653 83.7363C54.4646 83.0745 54.8108 82.688 55.4699 82.6281C55.6554 82.611 55.8429 82.6194 56.0297 82.6194C61.6473 82.6204 67.2649 82.6194 72.8825 82.6274C73.5266 82.6284 74.1744 82.6465 74.8135 82.7177C77.0401 82.9662 79.2537 82.5973 81.4746 82.6077C84.4444 82.6214 87.4146 82.6141 90.3844 82.6207C91.2297 82.6224 91.6593 82.9605 91.7078 83.6376C91.7487 84.2064 91.441 84.6365 90.8802 84.7431C90.6161 84.7933 90.3402 84.7973 90.0697 84.7973C84.4016 84.8 78.7331 84.7993 73.0646 84.7993Z" fill="url(#paint10_linear_1001_2305)"/>
<path d="M74.146 57.0073C74.146 57.6005 74.1487 58.194 74.145 58.7872C74.143 59.1367 74.2722 59.3681 74.6442 59.4393C74.8762 59.4838 75.1031 59.5597 75.3274 59.6363C77.315 60.3141 78.4637 61.9787 78.3569 64.0198C78.2547 65.967 76.8199 67.6096 74.8403 68.0453C74.2012 68.1861 74.1082 68.2723 74.1514 68.9354C74.1828 69.4193 74.0305 69.6444 73.5303 69.5882C73.4132 69.5748 73.293 69.5865 73.1741 69.5862C72.1835 69.5822 72.1655 69.5845 72.0399 68.6228C71.9803 68.1647 71.671 68.0697 71.3158 67.9717C69.515 67.4748 68.3443 66.3452 67.8699 64.5238C67.7115 63.9158 67.7986 63.7975 68.4229 63.7774C68.6265 63.7711 68.8304 63.7677 69.0339 63.769C69.8612 63.7741 69.8635 63.7744 70.132 64.5676C70.3888 65.3263 71.0215 65.657 71.7041 65.8901C72.0399 66.0048 72.0265 65.6711 72.0289 65.4661C72.0399 64.5676 72.0346 63.6691 72.0346 62.7705C72.0349 61.437 72.0345 61.437 70.7885 61.0046C68.894 60.3479 67.7343 58.6963 67.7962 56.7444C67.8582 54.7906 69.1568 53.1925 71.1089 52.6672C71.9509 52.4404 71.9509 52.4404 72.0115 51.5707C72.0292 51.3149 72.14 51.1574 72.4219 51.1634C72.6934 51.1694 72.9649 51.1657 73.2364 51.1677C74.0027 51.1737 74.0071 51.1734 74.1085 51.9291C74.1514 52.2488 74.3331 52.4561 74.6117 52.5799C74.8119 52.6692 75.0258 52.7283 75.2347 52.7976C76.9357 53.36 77.9113 54.5602 78.323 56.2709C78.4201 56.6749 78.2842 56.8551 77.8865 56.8665C77.6321 56.8738 77.3773 56.8745 77.1229 56.8745C76.3411 56.8742 76.3093 56.8521 76.0395 56.0964C75.7807 55.3717 75.1751 55.032 74.5236 54.7625C74.1935 54.6257 74.1577 54.8942 74.155 55.1253C74.148 55.7526 74.1527 56.3796 74.1527 57.0069C74.15 57.0073 74.148 57.0073 74.146 57.0073ZM72.0275 56.8367C72.0289 56.8367 72.0305 56.8367 72.0319 56.8367C72.0319 56.2626 72.0258 55.6881 72.0339 55.1139C72.0396 54.6969 71.8467 54.6307 71.4892 54.7538C70.597 55.0607 69.9331 55.9459 69.9281 56.8591C69.9228 57.8115 70.5679 58.6766 71.5046 59.0002C71.8474 59.1186 72.0265 59.0387 72.0272 58.6608C72.0282 58.0526 72.0275 57.4446 72.0275 56.8367ZM74.1504 63.7527C74.1504 64.3278 74.1634 64.9036 74.146 65.4785C74.1329 65.9078 74.2893 66.0225 74.6957 65.8784C75.5728 65.5674 76.2173 64.711 76.2313 63.8032C76.2457 62.8712 75.6167 61.981 74.7188 61.6627C74.2528 61.4975 74.1601 61.5604 74.1524 62.0777C74.144 62.6358 74.1504 63.1942 74.1504 63.7527Z" fill="url(#paint11_linear_1001_2305)"/>
<defs>
<linearGradient id="paint0_linear_1001_2305" x1="8.74045" y1="214.364" x2="8.74045" y2="192.963" gradientUnits="userSpaceOnUse">
<stop stop-color="#FB7A0E"/>
<stop offset="1" stop-color="#B60000"/>
</linearGradient>
<linearGradient id="paint1_linear_1001_2305" x1="23.2644" y1="214.364" x2="23.2644" y2="192.963" gradientUnits="userSpaceOnUse">
<stop stop-color="#FB7A0E"/>
<stop offset="1" stop-color="#B60000"/>
</linearGradient>
<linearGradient id="paint2_linear_1001_2305" x1="37.7121" y1="214.364" x2="37.7121" y2="192.963" gradientUnits="userSpaceOnUse">
<stop stop-color="#FB7A0E"/>
<stop offset="1" stop-color="#B60000"/>
</linearGradient>
<linearGradient id="paint3_linear_1001_2305" x1="59.5514" y1="214.364" x2="59.5514" y2="192.963" gradientUnits="userSpaceOnUse">
<stop stop-color="#FB7A0E"/>
<stop offset="1" stop-color="#B60000"/>
</linearGradient>
<linearGradient id="paint4_linear_1001_2305" x1="82.2211" y1="214.364" x2="82.2211" y2="192.963" gradientUnits="userSpaceOnUse">
<stop stop-color="#FB7A0E"/>
<stop offset="1" stop-color="#B60000"/>
</linearGradient>
<linearGradient id="paint5_linear_1001_2305" x1="112.458" y1="214.364" x2="112.458" y2="192.963" gradientUnits="userSpaceOnUse">
<stop stop-color="#FB7A0E"/>
<stop offset="1" stop-color="#B60000"/>
</linearGradient>
<linearGradient id="paint6_linear_1001_2305" x1="135.456" y1="214.364" x2="135.456" y2="192.963" gradientUnits="userSpaceOnUse">
<stop stop-color="#FB7A0E"/>
<stop offset="1" stop-color="#B60000"/>
</linearGradient>
<linearGradient id="paint7_linear_1001_2305" x1="159.116" y1="214.364" x2="159.116" y2="192.963" gradientUnits="userSpaceOnUse">
<stop stop-color="#FB7A0E"/>
<stop offset="1" stop-color="#B60000"/>
</linearGradient>
<linearGradient id="paint8_linear_1001_2305" x1="99.3619" y1="0.289787" x2="80.8157" y2="104.268" gradientUnits="userSpaceOnUse">
<stop stop-color="#FB7A0E"/>
<stop offset="1" stop-color="#B60000"/>
</linearGradient>
<linearGradient id="paint9_linear_1001_2305" x1="67.7927" y1="116.665" x2="78.5909" y2="116.665" gradientUnits="userSpaceOnUse">
<stop offset="0.1225" stop-color="#D44D00"/>
<stop offset="0.3901" stop-color="#FF8A3F"/>
<stop offset="0.6481" stop-color="#FF772A"/>
<stop offset="0.8913" stop-color="#FF4700"/>
</linearGradient>
<linearGradient id="paint10_linear_1001_2305" x1="54.4653" y1="83.7034" x2="91.7118" y2="83.7034" gradientUnits="userSpaceOnUse">
<stop offset="0.1225" stop-color="#D44D00"/>
<stop offset="0.3901" stop-color="#FF8A3F"/>
<stop offset="0.6481" stop-color="#FF772A"/>
<stop offset="0.8913" stop-color="#FF4700"/>
</linearGradient>
<linearGradient id="paint11_linear_1001_2305" x1="67.7936" y1="60.3801" x2="78.3637" y2="60.3801" gradientUnits="userSpaceOnUse">
<stop offset="0.1225" stop-color="#D44D00"/>
<stop offset="0.3901" stop-color="#FF8A3F"/>
<stop offset="0.6481" stop-color="#FF772A"/>
<stop offset="0.8913" stop-color="#FF4700"/>
</linearGradient>
</defs>
</svg>
